<svg width="36" xmlns="http://www.w3.org/2000/svg" height="36" id="screenshot-cb1ba08d-7eca-80a6-8007-e87c4005cbd0" viewBox="0 0 36 36" xmlns:xlink="http://www.w3.org/1999/xlink" fill="none" version="1.1"><g id="shape-cb1ba08d-7eca-80a6-8007-e87c4005cbd0" width="24" class="lucide lucide-eclipse" height="24" rx="0" ry="0" style="fill: rgb(0, 0, 0);"><g id="shape-cb1ba08d-7eca-80a6-8007-e87c40079d58" style="display: none;"><g class="fills" id="fills-cb1ba08d-7eca-80a6-8007-e87c40079d58"><rect width="36" height="36" x="0" stroke-linejoin="round" transform="matrix(1.000000, 0.000000, 0.000000, 1.000000, 0.000000, 0.000000)" style="fill: none;" ry="0" fill="none" stroke-linecap="round" rx="0" y="0"/></g><g fill="none" stroke-linejoin="round" stroke-linecap="round" id="strokes-9e1d1305-93a1-8077-8007-e8915a690a5a-cb1ba08d-7eca-80a6-8007-e87c40079d58" class="strokes"><g class="stroke-shape"><rect rx="0" ry="0" x="0" y="0" transform="matrix(1.000000, 0.000000, 0.000000, 1.000000, 0.000000, 0.000000)" width="36" height="36" style="fill: none; stroke-width: 2.98041; stroke: rgb(227, 227, 227); stroke-opacity: 1;"/></g></g></g><g id="shape-cb1ba08d-7eca-80a6-8007-e8910d5f3d30"><g class="fills" id="fills-cb1ba08d-7eca-80a6-8007-e8910d5f3d30"><path d="M19,2L30,9L33,19L24,21L18,18L15,10L19,2" fill="none" stroke-linejoin="round" stroke-linecap="round" style="fill: rgb(227, 227, 227); fill-opacity: 1;"/></g></g><g id="shape-cb1ba08d-7eca-80a6-8007-e87c4007f52c"><g class="fills" id="fills-cb1ba08d-7eca-80a6-8007-e87c4007f52c"><ellipse cy="18" stroke-linejoin="round" transform="matrix(1.000000, 0.000000, 0.000000, 1.000000, 0.000000, 0.000000)" style="fill: none;" ry="15" fill="none" stroke-linecap="round" rx="15" cx="18"/></g><g fill="none" stroke-linejoin="round" stroke-linecap="round" id="strokes-9e1d1305-93a1-8077-8007-e8915a6ab136-cb1ba08d-7eca-80a6-8007-e87c4007f52c" class="strokes"><g class="stroke-shape"><ellipse cx="18" cy="18" rx="15" ry="15" transform="matrix(1.000000, 0.000000, 0.000000, 1.000000, 0.000000, 0.000000)" style="fill: none; stroke-width: 2.98041; stroke: rgb(227, 227, 227); stroke-opacity: 1;"/></g></g></g><g id="shape-cb1ba08d-7eca-80a6-8007-e87c4008f221"><g class="fills" id="fills-cb1ba08d-7eca-80a6-8007-e87c4008f221"><path d="M18,3C15.320526123046875,5.679473876953125,14.2740478515625,9.584930419921875,15.254791259765625,13.245208740234375C16.23553466796875,16.90545654296875,19.09454345703125,19.76446533203125,22.754791259765625,20.745208740234375C26.415069580078125,21.7259521484375,30.320526123046875,20.679473876953125,33,18" fill="none" stroke-linejoin="round" stroke-linecap="round" style="fill: none;"/></g><g fill="none" stroke-linejoin="round" stroke-linecap="round" id="strokes-9e1d1305-93a1-8077-8007-e8915a6b1cb7-cb1ba08d-7eca-80a6-8007-e87c4008f221" class="strokes"><g class="stroke-shape"><path d="M18,3C15.320526123046875,5.679473876953125,14.2740478515625,9.584930419921875,15.254791259765625,13.245208740234375C16.23553466796875,16.90545654296875,19.09454345703125,19.76446533203125,22.754791259765625,20.745208740234375C26.415069580078125,21.7259521484375,30.320526123046875,20.679473876953125,33,18" style="fill: none; stroke-width: 2.98041; stroke: rgb(227, 227, 227); stroke-opacity: 1;"/></g></g></g></g></svg>